{"title":"Alice Through the Looking Glass 2016 BRRip x264 AAC-SSN","uid":15918316,"size":1690178479,"categoryP":"video","categoryS":"movies","magnet":"?xt=urn:btih:4395fe4dfd28ce6f790f897a539d0816413d98e6&amp;dn=Alice+Through+the+Looking+Glass+2016+BRRip+x264+AAC-SSN&amp;tr=udp%3A%2F%2Ftracker.leechers-paradise.org%3A6969&amp;tr=udp%3A%2F%2Fzer0day.ch%3A1337&amp;tr=udp%3A%2F%2Fopen.demonii.com%3A1337&amp;tr=udp%3A%2F%2Ftracker.coppersurfer.tk%3A6969&amp;tr=udp%3A%2F%2Fexodus.desync.com%3A6969","seeders":11,"leechers":13,"uploader":"somespirit","files":2,"time":1475225152,"description":"IMDB:  http://www.imdb.com/title/tt2567026/\r\n\r\n Source: Alice.Through.the.Looking.Glass.2016.1080p.BluRay.x264-ENCOUNTERS\r\n\r\n\r\n\r\n General\r\n Complete name                            : Alice Through the Looking Glass 2016 BRRip x264 AAC-SSN.mkv\r\n Format                                   : Matroska\r\n Format version                           : Version 4 / Version 2\r\n File size                                : 1.57 GiB\r\n Duration                                 : 1 h 52 min\r\n Overall bit rate                         : 1 995 kb/s\r\n Encoded date                             : UTC 2016-09-29 09:22:57\r\n Writing application                      : mkvmerge v9.4.2 ('So High') 64bit\r\n Writing library                          : libebml v1.3.4 + libmatroska v1.4.5\r\n\r\n Video\r\n ID                                       : 1\r\n Format                                   : AVC\r\n Format/Info                              : Advanced Video Codec\r\n Format profile                           :   \r\n Format settings, CABAC                   : Yes\r\n Format settings, ReFrames                : 5 frames\r\n Codec ID                                 : V_MPEG4/ISO/AVC\r\n Duration                                 : 1 h 52 min\r\n Bit rate                                 : 1 664 kb/s\r\n Width                                    : 900 pixels\r\n Height                                   : 488 pixels\r\n Display aspect ratio                     : 1.85:1\r\n Frame rate mode                          : Constant\r\n Frame rate                               : 23.976 (24000/1001) FPS\r\n Color space                              : YUV\r\n Chroma subsampling                       : 4:2:0\r\n Bit depth                                : 8 bits\r\n Scan type                                : Progressive\r\n Bits/(Pixel*Frame)                       : 0.190\r\n Stream size                              : 1.31 GiB (83%)\r\n Writing library                          : x264 core 148 r2705 3f5ed56\r\n Language                                 : English\r\n Default                                  : Yes\r\n Forced                                   : No\r\n\r\n Audio\r\n ID                                       : 2\r\n Format                                   : AAC\r\n Format/Info                              : Advanced Audio Codec\r\n Format profile                           : LC\r\n Codec ID                                 : A_AAC\r\n Duration                                 : 1 h 52 min\r\n Bit rate                                 : 330 kb/s\r\n Channel(s)                               : 6 channels\r\n Channel positions                        : Front: L C R, Side: L R, LFE\r\n Sampling rate                            : 32.0 kHz\r\n Frame rate                               : 31.250 FPS (1024 spf)\r\n Compression mode                         : Lossy\r\n Stream size                              : 267 MiB (17%)\r\n Language                                 : English\r\n Default                                  : Yes\r\n Forced                                   : No","torrent":{"xt":"urn:btih:4395fe4dfd28ce6f790f897a539d0816413d98e6","amp;dn":"Alice+Through+the+Looking+Glass+2016+BRRip+x264+AAC-SSN","amp;tr":["udp%3A%2F%2Ftracker.leechers-paradise.org%3A6969","udp%3A%2F%2Fzer0day.ch%3A1337","udp%3A%2F%2Fopen.demonii.com%3A1337","udp%3A%2F%2Ftracker.coppersurfer.tk%3A6969","udp%3A%2F%2Fexodus.desync.com%3A6969"],"infoHash":"4395fe4dfd28ce6f790f897a539d0816413d98e6","infoHashBuffer":{"type":"Buffer","data":[67,149,254,77,253,40,206,111,121,15,137,122,83,157,8,22,65,61,152,230]},"announce":[],"urlList":[]}}